<svg width="19" height="22" viewBox="0 0 19 22" fill="none" xmlns="http://www.w3.org/2000/svg">
<path d="M4.25 6.41182C4.25 6.82603 4.58579 7.16182 5 7.16182C5.41421 7.16182 5.75 6.82603 5.75 6.41182H5H4.25ZM9.06 0.771821L9.1297 1.51858L9.13242 1.51831L9.06 0.771821ZM13.25 6.63182C13.25 7.04603 13.5858 7.38182 14 7.38182C14.4142 7.38182 14.75 7.04603 14.75 6.63182H14H13.25ZM5 6.41182H5.75V5.44182H5H4.25V6.41182H5ZM5 5.44182H5.75C5.75 3.53426 7.30824 1.68858 9.1297 1.51858L9.06 0.771821L8.9903 0.0250607C6.31176 0.275061 4.25 2.84937 4.25 5.44182H5ZM9.06 0.771821L9.13242 1.51831C11.3655 1.30167 13.25 3.05846 13.25 5.25182H14H14.75C14.75 2.18517 12.1145 -0.278029 8.98758 0.025321L9.06 0.771821ZM14 5.25182H13.25V6.63182H14H14.75V5.25182H14Z" fill="#292D32"/>
<path d="M17.4508 17.18L16.7065 17.0869L16.7051 17.1001L17.4508 17.18ZM18.2008 11.18L18.9451 11.273L18.9463 11.2625L18.2008 11.18ZM0.800764 11.18L0.0552403 11.2625L0.0565563 11.273L0.800764 11.18ZM1.55076 17.18L2.29661 17.1L2.29497 17.0869L1.55076 17.18ZM6.50076 20.75V21.5H12.5008V20.75V20H6.50076V20.75ZM12.5008 20.75V21.5C14.5877 21.5 15.9993 21.0861 16.9104 20.2537C17.8284 19.4151 18.0864 18.2879 18.1965 17.2599L17.4508 17.18L16.7051 17.1001C16.6052 18.032 16.3983 18.6898 15.8987 19.1462C15.3923 19.6088 14.434 20 12.5008 20V20.75ZM17.4508 17.18L18.195 17.273L18.9451 11.273L18.2008 11.18L17.4566 11.087L16.7065 17.0869L17.4508 17.18ZM18.2008 11.18L18.9463 11.2625C19.0878 9.98365 19.0055 8.61135 18.1273 7.56715C17.2419 6.51455 15.7238 5.99995 13.5008 5.99995V6.74995V7.49995C15.5478 7.49995 16.5148 7.98035 16.9793 8.53275C17.4511 9.09355 17.5839 9.93625 17.4554 11.0975L18.2008 11.18ZM13.5008 6.74995V5.99995H5.50076V6.74995V7.49995H13.5008V6.74995ZM5.50076 6.74995V5.99995C3.27773 5.99995 1.75971 6.51455 0.874303 7.56715C-0.00396973 8.61135 -0.0862637 9.98365 0.0552403 11.2625L0.800764 11.18L1.54621 11.0975C1.41772 9.93625 1.5505 9.09355 2.02223 8.53275C2.48681 7.98035 3.4538 7.49995 5.50076 7.49995V6.74995ZM0.800764 11.18L0.0565563 11.273L0.806556 17.273L1.55076 17.18L2.29497 17.0869L1.54497 11.087L0.800764 11.18ZM1.55076 17.18L0.805033 17.2599C0.915184 18.2879 1.17322 19.4151 2.09115 20.2537C3.00229 21.0861 4.41391 21.5 6.50076 21.5V20.75V20C4.56761 20 3.60923 19.6088 3.10288 19.1462C2.60331 18.6898 2.39645 18.032 2.29661 17.1L1.55076 17.18Z" fill="#292D32"/>
<path d="M12.9946 9.74995C12.4423 9.74995 11.9946 10.1977 11.9946 10.75C11.9946 11.3022 12.4423 11.75 12.9946 11.75V10.75V9.74995ZM13.0036 11.75C13.5559 11.75 14.0036 11.3022 14.0036 10.75C14.0036 10.1977 13.5559 9.74995 13.0036 9.74995V10.75V11.75ZM12.9946 10.75V11.75H13.0036V10.75V9.74995H12.9946V10.75Z" fill="#292D32"/>
<path d="M5.99463 9.74995C5.44234 9.74995 4.99463 10.1977 4.99463 10.75C4.99463 11.3022 5.44234 11.75 5.99463 11.75V10.75V9.74995ZM6.00361 11.75C6.55589 11.75 7.00361 11.3022 7.00361 10.75C7.00361 10.1977 6.55589 9.74995 6.00361 9.74995V10.75V11.75ZM5.99463 10.75V11.75H6.00361V10.75V9.74995H5.99463V10.75Z" fill="#292D32"/>
</svg>
