<svg width="24" height="24" viewBox="0 0 24 24" fill="none" xmlns="http://www.w3.org/2000/svg">
<path d="M15.4129 7.87022L16.1111 7.59642L16.1106 7.59512L15.4129 7.87022ZM15.9779 15.4128L16.2518 16.111L16.2531 16.1105L15.9779 15.4128ZM8.4354 15.9778L7.73719 16.2516L7.73771 16.2529L8.4354 15.9778ZM7.8704 8.43522L7.59655 7.73702L7.59522 7.73752L7.8704 8.43522ZM10.9942 1.38272L11.6919 1.65792C11.7748 1.44752 12.0735 1.44732 12.1564 1.65772L12.8542 1.38272L13.5519 1.10782C12.9698 -0.369276 10.8785 -0.369276 10.2964 1.10782L10.9942 1.38272ZM12.8542 1.38272L12.1564 1.65772L14.7152 8.14542L15.4129 7.87022L16.1106 7.59512L13.5519 1.10782L12.8542 1.38272ZM15.4129 7.87022L14.7147 8.14412C14.8024 8.36782 14.9353 8.57112 15.1051 8.74122L15.636 8.21142L16.1669 7.68172C16.1426 7.65742 16.1237 7.62832 16.1111 7.59642L15.4129 7.87022ZM15.636 8.21142L15.1051 8.74122C15.2748 8.91132 15.4777 9.04462 15.7013 9.13282L15.9767 8.43522L16.2521 7.73762C16.2201 7.72502 16.1911 7.70602 16.1669 7.68172L15.636 8.21142ZM15.9767 8.43522L15.7013 9.13282L22.1903 11.6917L22.4654 10.994L22.7405 10.2963L16.2521 7.73762L15.9767 8.43522ZM22.4654 10.994L22.1903 11.6917C22.4007 11.7746 22.4008 12.0733 22.1904 12.1562L22.4654 12.854L22.7404 13.5518C24.2175 12.9697 24.2176 10.8784 22.7405 10.2963L22.4654 10.994ZM22.4654 12.854L22.1904 12.1562L15.7027 14.715L15.9779 15.4128L16.2531 16.1105L22.7404 13.5518L22.4654 12.854ZM15.9779 15.4128L15.7041 14.7145C15.4803 14.8023 15.2771 14.9352 15.107 15.1049L15.6367 15.6358L16.1665 16.1667C16.1908 16.1425 16.2198 16.1235 16.2518 16.111L15.9779 15.4128ZM15.6367 15.6358L15.107 15.1049C14.9369 15.2746 14.8035 15.4776 14.7153 15.7011L15.4129 15.9765L16.1105 16.2519C16.1231 16.22 16.1422 16.191 16.1665 16.1667L15.6367 15.6358ZM15.4129 15.9765L14.7153 15.7011L12.1565 22.1901L12.8542 22.4653L13.5519 22.7404L16.1105 16.2519L15.4129 15.9765ZM12.8542 22.4653L12.1565 22.1901C12.0736 22.4005 11.7748 22.4007 11.6919 22.1903L10.9942 22.4653L10.2964 22.7402C10.8785 24.2174 12.9698 24.2175 13.5519 22.7404L12.8542 22.4653ZM10.9942 22.4653L11.6919 22.1903L9.1331 15.7026L8.4354 15.9778L7.73771 16.2529L10.2964 22.7402L10.9942 22.4653ZM8.4354 15.9778L9.13362 15.7039C9.04587 15.4802 8.91299 15.2769 8.74326 15.1068L8.21234 15.6366L7.68142 16.1663C7.70567 16.1906 7.72465 16.2197 7.73719 16.2516L8.4354 15.9778ZM8.21234 15.6366L8.74326 15.1068C8.57352 14.9367 8.37057 14.8034 8.14705 14.7151L7.87165 15.4128L7.59625 16.1104C7.62818 16.123 7.65717 16.142 7.68142 16.1663L8.21234 15.6366ZM7.87165 15.4128L8.14705 14.7151L1.65804 12.1563L1.3829 12.854L1.10777 13.5517L7.59625 16.1104L7.87165 15.4128ZM1.3829 12.854L1.65804 12.1563C1.44766 12.0734 1.4475 11.7747 1.65788 11.6918L1.3829 10.994L1.10793 10.2962C-0.369188 10.8783 -0.369347 12.9696 1.10777 13.5517L1.3829 12.854ZM1.3829 10.994L1.65788 11.6918L8.14558 9.13292L7.8704 8.43522L7.59522 7.73752L1.10793 10.2962L1.3829 10.994ZM7.8704 8.43522L8.14426 9.13352C8.36797 9.04572 8.57122 8.91282 8.74133 8.74312L8.21158 8.21222L7.68184 7.68132C7.65754 7.70552 7.62851 7.72452 7.59655 7.73702L7.8704 8.43522ZM8.21158 8.21222L8.74133 8.74312C8.91144 8.57342 9.04477 8.37042 9.13301 8.14692L8.4354 7.87152L7.7378 7.59612C7.72519 7.62802 7.70614 7.65702 7.68184 7.68132L8.21158 8.21222ZM8.4354 7.87152L9.13301 8.14692L11.6919 1.65792L10.9942 1.38272L10.2964 1.10782L7.7378 7.59612L8.4354 7.87152Z" fill="black"/>
<path d="M3.4866 5.04663C4.34954 5.04663 5.0491 4.34708 5.0491 3.48413C5.0491 2.62119 4.34954 1.92163 3.4866 1.92163C2.62366 1.92163 1.9241 2.62119 1.9241 3.48413C1.9241 4.34708 2.62366 5.04663 3.4866 5.04663Z" fill="black"/>
<path d="M20.6741 21.9266C21.3645 21.9266 21.9241 21.367 21.9241 20.6766C21.9241 19.9863 21.3645 19.4266 20.6741 19.4266C19.9837 19.4266 19.4241 19.9863 19.4241 20.6766C19.4241 21.367 19.9837 21.9266 20.6741 21.9266Z" fill="black"/>
</svg>
