<svg width="22" height="20" viewBox="0 0 22 20" fill="none" xmlns="http://www.w3.org/2000/svg">
<path d="M11.37 18.46L11.1277 17.7502L11.1204 17.7528L11.37 18.46ZM10.13 18.46L10.3796 17.7527L10.3723 17.7502L10.13 18.46ZM10.75 2.99L10.1479 3.4372C10.2894 3.6277 10.5127 3.74 10.75 3.74C10.9873 3.74 11.2106 3.6277 11.3521 3.4372L10.75 2.99ZM11.37 18.46L11.1204 17.7528C11.0556 17.7756 10.9214 17.8 10.75 17.8C10.5786 17.8 10.4444 17.7756 10.3796 17.7527L10.13 18.46L9.88038 19.1672C10.1556 19.2644 10.4714 19.3 10.75 19.3C11.0286 19.3 11.3444 19.2644 11.6196 19.1672L11.37 18.46ZM10.13 18.46L10.3723 17.7502C9.02994 17.292 6.78683 16.0742 4.88923 14.1299C3.00068 12.1949 1.5 9.5905 1.5 6.34H0.75H0C0 10.0895 1.73932 13.0501 3.81577 15.1776C5.88317 17.2958 8.33005 18.638 9.88769 19.1698L10.13 18.46ZM0.75 6.34H1.5C1.5 3.6607 3.65771 1.5 6.31 1.5V0.75V0C2.82229 0 0 2.8393 0 6.34H0.75ZM6.31 0.75V1.5C7.88147 1.5 9.27255 2.2585 10.1479 3.4372L10.75 2.99L11.3521 2.5428C10.2075 1.0015 8.37853 0 6.31 0V0.75ZM10.75 2.99L11.3521 3.4372C12.227 2.2591 13.6278 1.5 15.19 1.5V0.75V0C13.1322 0 11.293 1.0009 10.1479 2.5428L10.75 2.99ZM15.19 0.75V1.5C17.8423 1.5 20 3.6607 20 6.34H20.75H21.5C21.5 2.8393 18.6777 0 15.19 0V0.75ZM20.75 6.34H20C20 9.5905 18.4993 12.1949 16.6108 14.1299C14.7132 16.0742 12.4701 17.2919 11.1277 17.7502L11.37 18.46L11.6123 19.1698C13.1699 18.638 15.6168 17.2958 17.6842 15.1776C19.7607 13.0501 21.5 10.0895 21.5 6.34H20.75Z" fill="#224C48"/>
</svg>
