<svg width="16" height="22" viewBox="0 0 16 22" fill="none" xmlns="http://www.w3.org/2000/svg">
<path d="M7.56997 9.61999L7.49534 10.3663C7.52851 10.3696 7.56185 10.3707 7.59517 10.3696L7.56997 9.61999ZM7.23997 9.61999L7.21477 10.3696C7.24583 10.3706 7.27692 10.3697 7.30787 10.3669L7.23997 9.61999ZM11.85 5.18999L12.6 5.19312V5.18999H11.85ZM7.56997 9.61999L7.6446 8.87372C7.49282 8.85854 7.32488 8.85918 7.17207 8.87307L7.23997 9.61999L7.30787 10.3669C7.37506 10.3608 7.44712 10.3615 7.49534 10.3663L7.56997 9.61999ZM7.23997 9.61999L7.26517 8.87042C5.29037 8.80404 3.71997 7.18662 3.71997 5.18999H2.96997H2.21997C2.21997 7.99337 4.42957 10.276 7.21477 10.3696L7.23997 9.61999ZM2.96997 5.18999H3.71997C3.71997 3.15311 5.36528 1.49999 7.40997 1.49999V0.749992V-7.62939e-06C4.53466 -7.62939e-06 2.21997 2.32688 2.21997 5.18999H2.96997ZM7.40997 0.749992V1.49999C9.44576 1.49999 11.1 3.15421 11.1 5.18999H11.85H12.6C12.6 2.32578 10.2742 -7.62939e-06 7.40997 -7.62939e-06V0.749992ZM11.85 5.18999L11.1 5.18687C11.0916 7.18648 9.51902 8.80406 7.54477 8.87042L7.56997 9.61999L7.59517 10.3696C10.3809 10.2759 12.5883 7.99351 12.6 5.19312L11.85 5.18999Z" fill="#224C48"/>
<path d="M2.565 13.3107L2.15054 12.6856L2.14779 12.6875L2.565 13.3107ZM2.565 19.1807L2.98207 18.5574L2.98043 18.5563L2.565 19.1807ZM12.575 13.3107L12.1585 13.9344L12.1596 13.9351L12.575 13.3107ZM2.565 13.3107L2.14779 12.6875C0.782442 13.6014 0 14.8781 0 16.2494C0 17.6212 0.782995 18.896 2.14957 19.8051L2.565 19.1807L2.98043 18.5563C1.92701 17.8554 1.5 17.0051 1.5 16.2494C1.5 15.4933 1.92756 14.64 2.98221 13.9339L2.565 13.3107ZM2.565 19.1807L2.14793 19.804C3.67214 20.8239 5.64092 21.3107 7.57 21.3107C9.49908 21.3107 11.4679 20.8239 12.9921 19.804L12.575 19.1807L12.1579 18.5574C10.9321 19.3775 9.27092 19.8107 7.57 19.8107C5.86908 19.8107 4.20785 19.3775 2.98207 18.5574L2.565 19.1807ZM12.575 19.1807L12.9921 19.804C14.3575 18.89 15.14 17.6133 15.14 16.2419C15.14 14.8701 14.357 13.5954 12.9904 12.6863L12.575 13.3107L12.1596 13.9351C13.213 14.636 13.64 15.4862 13.64 16.2419C13.64 16.9981 13.2125 17.8513 12.1579 18.5574L12.575 19.1807ZM12.575 13.3107L12.9916 12.687C11.472 11.6721 9.5057 11.1882 7.5775 11.1882C5.64906 11.1882 3.67898 11.6722 2.15054 12.6856L2.565 13.3107L2.97946 13.9358C4.21102 13.1192 5.87594 12.6882 7.5775 12.6882C9.2793 12.6882 10.938 13.1193 12.1585 13.9344L12.575 13.3107Z" fill="#224C48"/>
</svg>
