<svg width="27" height="27" viewBox="0 0 27 27" fill="none" xmlns="http://www.w3.org/2000/svg">
<g filter="url(#filter0_d_3_1260)">
<path d="M19.75 8.25H19C19 11.9779 15.9779 15 12.25 15V15.75V16.5C16.8063 16.5 20.5 12.8063 20.5 8.25H19.75ZM12.25 15.75V15C8.52208 15 5.5 11.9779 5.5 8.25H4.75H4C4 12.8063 7.69365 16.5 12.25 16.5V15.75ZM4.75 8.25H5.5C5.5 4.5221 8.52208 1.5 12.25 1.5V0.750004V3.8147e-06C7.69365 3.8147e-06 4 3.6936 4 8.25H4.75ZM12.25 0.750004V1.5C15.9779 1.5 19 4.5221 19 8.25H19.75H20.5C20.5 3.6936 16.8063 3.8147e-06 12.25 3.8147e-06V0.750004Z" fill="#292D32"/>
<path d="M20.041 14.6811L20.0344 15.4311H20.041V14.6811ZM18.8577 16.3228L18.1455 16.558C18.4033 17.3362 18.9208 18.0431 19.7455 18.1537C20.5701 18.2642 21.2548 17.7191 21.7074 17.0378L21.0827 16.6228L20.4579 16.2078C20.3064 16.4359 20.1702 16.559 20.0744 16.6185C20.028 16.6474 19.9948 16.6591 19.9756 16.6638C19.9574 16.6683 19.9483 16.6674 19.9448 16.6669C19.9413 16.6665 19.9322 16.6649 19.9158 16.6558C19.8985 16.6461 19.8696 16.6261 19.8323 16.586C19.7554 16.5031 19.6561 16.348 19.5696 16.087L18.8577 16.3228ZM21.0827 16.6228L21.7074 17.0378C22.1402 16.386 22.3418 15.5923 21.9699 14.8979C21.5978 14.203 20.825 13.9311 20.041 13.9311V14.6811V15.4311C20.5403 15.4311 20.6426 15.5967 20.6475 15.606C20.6527 15.6157 20.7335 15.7929 20.4579 16.2078L21.0827 16.6228ZM20.041 14.6811L20.0476 13.9312C19.3717 13.9252 18.7521 14.1921 18.372 14.7199C17.9929 15.2462 17.9341 15.9179 18.1455 16.558L18.8577 16.3228L19.5696 16.087C19.481 15.8187 19.5391 15.666 19.5891 15.5966C19.6382 15.5285 19.7602 15.4287 20.0344 15.4311L20.041 14.6811Z" fill="#292D32"/>
</g>
<defs>
<filter id="filter0_d_3_1260" x="0" y="0" width="26.1646" height="26.168" filterUnits="userSpaceOnUse" color-interpolation-filters="sRGB">
<feFlood flood-opacity="0" result="BackgroundImageFix"/>
<feColorMatrix in="SourceAlpha" type="matrix" values="0 0 0 0 0 0 0 0 0 0 0 0 0 0 0 0 0 0 127 0" result="hardAlpha"/>
<feOffset dy="4"/>
<feGaussianBlur stdDeviation="2"/>
<feComposite in2="hardAlpha" operator="out"/>
<feColorMatrix type="matrix" values="0 0 0 0 0 0 0 0 0 0 0 0 0 0 0 0 0 0 0.25 0"/>
<feBlend mode="normal" in2="BackgroundImageFix" result="effect1_dropShadow_3_1260"/>
<feBlend mode="normal" in="SourceGraphic" in2="effect1_dropShadow_3_1260" result="shape"/>
</filter>
</defs>
</svg>
